<mxfile host="65bd71144e">
    <diagram id="Su43-KYXOhmaVmApNBXU" name="Page-1">
        <mxGraphModel dx="976" dy="704" grid="1" gridSize="10" guides="1" tooltips="1" connect="1" arrows="1" fold="1" page="1" pageScale="1" pageWidth="850" pageHeight="1100" math="0" shadow="0">
            <root>
                <mxCell id="0"/>
                <mxCell id="1" parent="0"/>
                <mxCell id="2" value="" style="childLayout=tableLayout;recursiveResize=0;shadow=0;fillColor=none;" vertex="1" parent="1">
                    <mxGeometry x="170" y="210" width="360" height="281" as="geometry"/>
                </mxCell>
                <mxCell id="3" value="" style="shape=tableRow;horizontal=0;startSize=0;swimlaneHead=0;swimlaneBody=0;top=0;left=0;bottom=0;right=0;dropTarget=0;collapsible=0;recursiveResize=0;expand=0;fontStyle=0;fillColor=none;strokeColor=inherit;" vertex="1" parent="2">
                    <mxGeometry width="360" height="47" as="geometry"/>
                </mxCell>
                <mxCell id="4" value="36" style="connectable=0;recursiveResize=0;strokeColor=inherit;fillColor=none;align=center;whiteSpace=wrap;html=1;" vertex="1" parent="3">
                    <mxGeometry width="60" height="47" as="geometry">
                        <mxRectangle width="60" height="47" as="alternateBounds"/>
                    </mxGeometry>
                </mxCell>
                <mxCell id="21" value="35" style="connectable=0;recursiveResize=0;strokeColor=inherit;fillColor=none;align=center;whiteSpace=wrap;html=1;" vertex="1" parent="3">
                    <mxGeometry x="60" width="60" height="47" as="geometry">
                        <mxRectangle width="60" height="47" as="alternateBounds"/>
                    </mxGeometry>
                </mxCell>
                <mxCell id="18" value="34" style="connectable=0;recursiveResize=0;strokeColor=inherit;fillColor=none;align=center;whiteSpace=wrap;html=1;" vertex="1" parent="3">
                    <mxGeometry x="120" width="60" height="47" as="geometry">
                        <mxRectangle width="60" height="47" as="alternateBounds"/>
                    </mxGeometry>
                </mxCell>
                <mxCell id="15" value="33" style="connectable=0;recursiveResize=0;strokeColor=inherit;fillColor=none;align=center;whiteSpace=wrap;html=1;" vertex="1" parent="3">
                    <mxGeometry x="180" width="60" height="47" as="geometry">
                        <mxRectangle width="60" height="47" as="alternateBounds"/>
                    </mxGeometry>
                </mxCell>
                <mxCell id="5" value="32" style="connectable=0;recursiveResize=0;strokeColor=inherit;fillColor=none;align=center;whiteSpace=wrap;html=1;" vertex="1" parent="3">
                    <mxGeometry x="240" width="60" height="47" as="geometry">
                        <mxRectangle width="60" height="47" as="alternateBounds"/>
                    </mxGeometry>
                </mxCell>
                <mxCell id="6" value="31" style="connectable=0;recursiveResize=0;strokeColor=inherit;fillColor=none;align=center;whiteSpace=wrap;html=1;" vertex="1" parent="3">
                    <mxGeometry x="300" width="60" height="47" as="geometry">
                        <mxRectangle width="60" height="47" as="alternateBounds"/>
                    </mxGeometry>
                </mxCell>
                <mxCell id="38" style="shape=tableRow;horizontal=0;startSize=0;swimlaneHead=0;swimlaneBody=0;top=0;left=0;bottom=0;right=0;dropTarget=0;collapsible=0;recursiveResize=0;expand=0;fontStyle=0;fillColor=none;strokeColor=inherit;" vertex="1" parent="2">
                    <mxGeometry y="47" width="360" height="47" as="geometry"/>
                </mxCell>
                <mxCell id="39" value="25" style="connectable=0;recursiveResize=0;strokeColor=inherit;fillColor=none;align=center;whiteSpace=wrap;html=1;" vertex="1" parent="38">
                    <mxGeometry width="60" height="47" as="geometry">
                        <mxRectangle width="60" height="47" as="alternateBounds"/>
                    </mxGeometry>
                </mxCell>
                <mxCell id="40" value="26" style="connectable=0;recursiveResize=0;strokeColor=inherit;fillColor=none;align=center;whiteSpace=wrap;html=1;" vertex="1" parent="38">
                    <mxGeometry x="60" width="60" height="47" as="geometry">
                        <mxRectangle width="60" height="47" as="alternateBounds"/>
                    </mxGeometry>
                </mxCell>
                <mxCell id="41" value="27" style="connectable=0;recursiveResize=0;strokeColor=inherit;fillColor=none;align=center;whiteSpace=wrap;html=1;" vertex="1" parent="38">
                    <mxGeometry x="120" width="60" height="47" as="geometry">
                        <mxRectangle width="60" height="47" as="alternateBounds"/>
                    </mxGeometry>
                </mxCell>
                <mxCell id="42" value="28" style="connectable=0;recursiveResize=0;strokeColor=inherit;fillColor=none;align=center;whiteSpace=wrap;html=1;" vertex="1" parent="38">
                    <mxGeometry x="180" width="60" height="47" as="geometry">
                        <mxRectangle width="60" height="47" as="alternateBounds"/>
                    </mxGeometry>
                </mxCell>
                <mxCell id="43" value="29" style="connectable=0;recursiveResize=0;strokeColor=inherit;fillColor=none;align=center;whiteSpace=wrap;html=1;" vertex="1" parent="38">
                    <mxGeometry x="240" width="60" height="47" as="geometry">
                        <mxRectangle width="60" height="47" as="alternateBounds"/>
                    </mxGeometry>
                </mxCell>
                <mxCell id="44" value="30" style="connectable=0;recursiveResize=0;strokeColor=inherit;fillColor=none;align=center;whiteSpace=wrap;html=1;" vertex="1" parent="38">
                    <mxGeometry x="300" width="60" height="47" as="geometry">
                        <mxRectangle width="60" height="47" as="alternateBounds"/>
                    </mxGeometry>
                </mxCell>
                <mxCell id="31" style="shape=tableRow;horizontal=0;startSize=0;swimlaneHead=0;swimlaneBody=0;top=0;left=0;bottom=0;right=0;dropTarget=0;collapsible=0;recursiveResize=0;expand=0;fontStyle=0;fillColor=none;strokeColor=inherit;" vertex="1" parent="2">
                    <mxGeometry y="94" width="360" height="47" as="geometry"/>
                </mxCell>
                <mxCell id="32" value="24" style="connectable=0;recursiveResize=0;strokeColor=inherit;fillColor=none;align=center;whiteSpace=wrap;html=1;" vertex="1" parent="31">
                    <mxGeometry width="60" height="47" as="geometry">
                        <mxRectangle width="60" height="47" as="alternateBounds"/>
                    </mxGeometry>
                </mxCell>
                <mxCell id="33" value="23" style="connectable=0;recursiveResize=0;strokeColor=inherit;fillColor=none;align=center;whiteSpace=wrap;html=1;" vertex="1" parent="31">
                    <mxGeometry x="60" width="60" height="47" as="geometry">
                        <mxRectangle width="60" height="47" as="alternateBounds"/>
                    </mxGeometry>
                </mxCell>
                <mxCell id="34" value="22" style="connectable=0;recursiveResize=0;strokeColor=inherit;fillColor=none;align=center;whiteSpace=wrap;html=1;" vertex="1" parent="31">
                    <mxGeometry x="120" width="60" height="47" as="geometry">
                        <mxRectangle width="60" height="47" as="alternateBounds"/>
                    </mxGeometry>
                </mxCell>
                <mxCell id="35" value="21" style="connectable=0;recursiveResize=0;strokeColor=inherit;fillColor=none;align=center;whiteSpace=wrap;html=1;" vertex="1" parent="31">
                    <mxGeometry x="180" width="60" height="47" as="geometry">
                        <mxRectangle width="60" height="47" as="alternateBounds"/>
                    </mxGeometry>
                </mxCell>
                <mxCell id="36" value="20" style="connectable=0;recursiveResize=0;strokeColor=inherit;fillColor=none;align=center;whiteSpace=wrap;html=1;" vertex="1" parent="31">
                    <mxGeometry x="240" width="60" height="47" as="geometry">
                        <mxRectangle width="60" height="47" as="alternateBounds"/>
                    </mxGeometry>
                </mxCell>
                <mxCell id="37" value="19" style="connectable=0;recursiveResize=0;strokeColor=inherit;fillColor=none;align=center;whiteSpace=wrap;html=1;" vertex="1" parent="31">
                    <mxGeometry x="300" width="60" height="47" as="geometry">
                        <mxRectangle width="60" height="47" as="alternateBounds"/>
                    </mxGeometry>
                </mxCell>
                <mxCell id="24" style="shape=tableRow;horizontal=0;startSize=0;swimlaneHead=0;swimlaneBody=0;top=0;left=0;bottom=0;right=0;dropTarget=0;collapsible=0;recursiveResize=0;expand=0;fontStyle=0;fillColor=none;strokeColor=inherit;" vertex="1" parent="2">
                    <mxGeometry y="141" width="360" height="47" as="geometry"/>
                </mxCell>
                <mxCell id="25" value="13" style="connectable=0;recursiveResize=0;strokeColor=inherit;fillColor=none;align=center;whiteSpace=wrap;html=1;" vertex="1" parent="24">
                    <mxGeometry width="60" height="47" as="geometry">
                        <mxRectangle width="60" height="47" as="alternateBounds"/>
                    </mxGeometry>
                </mxCell>
                <mxCell id="26" value="14" style="connectable=0;recursiveResize=0;strokeColor=inherit;fillColor=none;align=center;whiteSpace=wrap;html=1;" vertex="1" parent="24">
                    <mxGeometry x="60" width="60" height="47" as="geometry">
                        <mxRectangle width="60" height="47" as="alternateBounds"/>
                    </mxGeometry>
                </mxCell>
                <mxCell id="27" value="15" style="connectable=0;recursiveResize=0;strokeColor=inherit;fillColor=none;align=center;whiteSpace=wrap;html=1;" vertex="1" parent="24">
                    <mxGeometry x="120" width="60" height="47" as="geometry">
                        <mxRectangle width="60" height="47" as="alternateBounds"/>
                    </mxGeometry>
                </mxCell>
                <mxCell id="28" value="16" style="connectable=0;recursiveResize=0;strokeColor=inherit;fillColor=none;align=center;whiteSpace=wrap;html=1;" vertex="1" parent="24">
                    <mxGeometry x="180" width="60" height="47" as="geometry">
                        <mxRectangle width="60" height="47" as="alternateBounds"/>
                    </mxGeometry>
                </mxCell>
                <mxCell id="29" value="17" style="connectable=0;recursiveResize=0;strokeColor=inherit;fillColor=none;align=center;whiteSpace=wrap;html=1;" vertex="1" parent="24">
                    <mxGeometry x="240" width="60" height="47" as="geometry">
                        <mxRectangle width="60" height="47" as="alternateBounds"/>
                    </mxGeometry>
                </mxCell>
                <mxCell id="30" value="18" style="connectable=0;recursiveResize=0;strokeColor=inherit;fillColor=none;align=center;whiteSpace=wrap;html=1;" vertex="1" parent="24">
                    <mxGeometry x="300" width="60" height="47" as="geometry">
                        <mxRectangle width="60" height="47" as="alternateBounds"/>
                    </mxGeometry>
                </mxCell>
                <mxCell id="7" style="shape=tableRow;horizontal=0;startSize=0;swimlaneHead=0;swimlaneBody=0;top=0;left=0;bottom=0;right=0;dropTarget=0;collapsible=0;recursiveResize=0;expand=0;fontStyle=0;fillColor=none;strokeColor=inherit;" vertex="1" parent="2">
                    <mxGeometry y="188" width="360" height="46" as="geometry"/>
                </mxCell>
                <mxCell id="8" value="12" style="connectable=0;recursiveResize=0;strokeColor=inherit;fillColor=none;align=center;whiteSpace=wrap;html=1;" vertex="1" parent="7">
                    <mxGeometry width="60" height="46" as="geometry">
                        <mxRectangle width="60" height="46" as="alternateBounds"/>
                    </mxGeometry>
                </mxCell>
                <mxCell id="22" value="11" style="connectable=0;recursiveResize=0;strokeColor=inherit;fillColor=none;align=center;whiteSpace=wrap;html=1;" vertex="1" parent="7">
                    <mxGeometry x="60" width="60" height="46" as="geometry">
                        <mxRectangle width="60" height="46" as="alternateBounds"/>
                    </mxGeometry>
                </mxCell>
                <mxCell id="19" value="10" style="connectable=0;recursiveResize=0;strokeColor=inherit;fillColor=none;align=center;whiteSpace=wrap;html=1;" vertex="1" parent="7">
                    <mxGeometry x="120" width="60" height="46" as="geometry">
                        <mxRectangle width="60" height="46" as="alternateBounds"/>
                    </mxGeometry>
                </mxCell>
                <mxCell id="16" value="9" style="connectable=0;recursiveResize=0;strokeColor=inherit;fillColor=none;align=center;whiteSpace=wrap;html=1;" vertex="1" parent="7">
                    <mxGeometry x="180" width="60" height="46" as="geometry">
                        <mxRectangle width="60" height="46" as="alternateBounds"/>
                    </mxGeometry>
                </mxCell>
                <mxCell id="9" value="8" style="connectable=0;recursiveResize=0;strokeColor=inherit;fillColor=none;align=center;whiteSpace=wrap;html=1;" vertex="1" parent="7">
                    <mxGeometry x="240" width="60" height="46" as="geometry">
                        <mxRectangle width="60" height="46" as="alternateBounds"/>
                    </mxGeometry>
                </mxCell>
                <mxCell id="10" value="7" style="connectable=0;recursiveResize=0;strokeColor=inherit;fillColor=none;align=center;whiteSpace=wrap;html=1;" vertex="1" parent="7">
                    <mxGeometry x="300" width="60" height="46" as="geometry">
                        <mxRectangle width="60" height="46" as="alternateBounds"/>
                    </mxGeometry>
                </mxCell>
                <mxCell id="11" style="shape=tableRow;horizontal=0;startSize=0;swimlaneHead=0;swimlaneBody=0;top=0;left=0;bottom=0;right=0;dropTarget=0;collapsible=0;recursiveResize=0;expand=0;fontStyle=0;fillColor=none;strokeColor=inherit;" vertex="1" parent="2">
                    <mxGeometry y="234" width="360" height="47" as="geometry"/>
                </mxCell>
                <mxCell id="12" value="1" style="connectable=0;recursiveResize=0;strokeColor=inherit;fillColor=none;align=center;whiteSpace=wrap;html=1;" vertex="1" parent="11">
                    <mxGeometry width="60" height="47" as="geometry">
                        <mxRectangle width="60" height="47" as="alternateBounds"/>
                    </mxGeometry>
                </mxCell>
                <mxCell id="23" value="2" style="connectable=0;recursiveResize=0;strokeColor=inherit;fillColor=none;align=center;whiteSpace=wrap;html=1;" vertex="1" parent="11">
                    <mxGeometry x="60" width="60" height="47" as="geometry">
                        <mxRectangle width="60" height="47" as="alternateBounds"/>
                    </mxGeometry>
                </mxCell>
                <mxCell id="20" value="3" style="connectable=0;recursiveResize=0;strokeColor=inherit;fillColor=none;align=center;whiteSpace=wrap;html=1;" vertex="1" parent="11">
                    <mxGeometry x="120" width="60" height="47" as="geometry">
                        <mxRectangle width="60" height="47" as="alternateBounds"/>
                    </mxGeometry>
                </mxCell>
                <mxCell id="17" value="4" style="connectable=0;recursiveResize=0;strokeColor=inherit;fillColor=none;align=center;whiteSpace=wrap;html=1;" vertex="1" parent="11">
                    <mxGeometry x="180" width="60" height="47" as="geometry">
                        <mxRectangle width="60" height="47" as="alternateBounds"/>
                    </mxGeometry>
                </mxCell>
                <mxCell id="13" value="5" style="connectable=0;recursiveResize=0;strokeColor=inherit;fillColor=none;align=center;whiteSpace=wrap;html=1;" vertex="1" parent="11">
                    <mxGeometry x="240" width="60" height="47" as="geometry">
                        <mxRectangle width="60" height="47" as="alternateBounds"/>
                    </mxGeometry>
                </mxCell>
                <mxCell id="14" value="6" style="connectable=0;recursiveResize=0;strokeColor=inherit;fillColor=none;align=center;whiteSpace=wrap;html=1;" vertex="1" parent="11">
                    <mxGeometry x="300" width="60" height="47" as="geometry">
                        <mxRectangle width="60" height="47" as="alternateBounds"/>
                    </mxGeometry>
                </mxCell>
            </root>
        </mxGraphModel>
    </diagram>
</mxfile>